<svg width="140" height="40" viewBox="0 0 140 40" fill="none" xmlns="http://www.w3.org/2000/svg">
<path fill-rule="evenodd" clip-rule="evenodd" d="M17.615 32.1941C15.5913 30.4393 14.1459 27.9533 13.6158 25.321L10.1949 9.04014C9.76121 6.94409 10.5321 4.84805 12.074 3.53193L8.123 2.70326C6.1475 2.26455 4.22019 3.53193 3.78654 5.53048L0.895575 19.8616C0.413746 22.1039 0.702843 24.4924 1.6665 26.5397L6.58115 37.2149C7.59299 39.4084 10.4358 40.0421 12.2667 38.4335L18.4823 32.974L17.615 32.1941Z" fill="#43A278"/>
<path fill-rule="evenodd" clip-rule="evenodd" d="M23.1078 2.50838L14.8686 4.26321C12.8931 4.70191 11.6403 6.65172 12.074 8.65028L15.4949 24.9312C15.9768 27.1735 17.1813 29.2208 18.8677 30.7319L27.6852 38.4336C29.5161 40.0422 32.3589 39.4085 33.3708 37.215L38.3336 26.5885C39.2972 24.4925 39.5863 22.1527 39.1045 19.9104L35.6354 3.58077C35.2017 1.58222 33.2744 0.314844 31.2989 0.753551L23.1078 2.50838Z" fill="#15AACB"/>
<path d="M82.3758 11.0491C84.0635 7.40549 80.5614 5.66844 77.861 7.36312C75.6247 8.76124 74.6121 13.8877 72.9665 17.9549C71.8273 20.7935 70.4348 23.9287 68.9159 26.5978C68.8315 26.7249 68.6627 26.6826 68.6205 26.5555C67.6922 21.4714 71.0678 6.47341 65.6247 6.00737C63.9792 5.88027 60.3083 7.40549 61.4475 9.86279C60.9834 15.2858 58.0298 20.7088 55.3294 25.3692C55.245 25.5386 54.9496 25.4963 54.9074 25.2844C54.1479 20.6664 54.8652 17.3618 53.9792 9.86279C53.4306 5.3295 48.3674 6.68525 46.342 9.52385C44.9918 11.4304 48.072 12.1082 48.1142 13.7182C48.2408 19.5649 47.8188 25.581 47.8188 31.3429C48.2408 33.1647 49.7176 33.3766 51.6585 33.4189C57.3125 33.1647 59.8441 26.3012 62.2492 21.9374C62.2914 24.4371 62.0804 26.5555 62.1648 29.0551C61.1943 31.809 62.4602 33.8002 65.4559 33.5037C74.6543 32.8258 79.8019 18.1668 82.3758 11.0491Z" fill="#333333"/>
<path d="M125.287 24.4373C123.937 23.2934 123.178 25.2847 122.376 26.2591C120.688 28.3775 116.891 31.0042 114.612 28.4198C118.325 27.4454 124.022 22.3613 120.773 18.7178C115.667 12.9558 105.034 20.7937 107.861 28.2504C105.962 29.5214 101.743 30.8771 100.097 28.2927C103.853 27.3183 109.591 22.5732 106.427 18.5483C100.266 13.2948 90.7304 20.6666 93.3886 28.1656C91.4477 29.6485 86.9751 30.6653 85.8359 27.4878C97.7346 25.9625 93.2621 13.1677 82.8823 18.3788C79.549 20.2006 78.5785 24.2255 79.4224 27.6996C81.0258 34.5207 90.3085 34.5631 94.992 30.9619C98.7473 34.9867 105.33 33.6734 109.465 31.0042C113.684 35.5375 120.857 32.6565 124.401 28.5893C125.119 27.8267 126.764 25.5812 125.287 24.4373ZM88.241 19.9888C89.338 20.4548 88.4941 24.2255 85.3296 24.1408C84.5279 22.1919 86.511 19.2685 88.241 19.9888ZM99.0426 21.8106C101.448 17.6586 104.064 22.9968 99.0848 24.9881C98.7051 23.9289 98.4519 23.0816 99.0426 21.8106ZM113.726 21.8953C116.173 17.9975 118.452 23.1239 113.431 25.1152C113.009 23.7594 113.178 22.785 113.726 21.8953Z" fill="#333333"/>
<path d="M139.887 9.18503C139.76 7.74455 137.27 6.3888 136.469 6.30407C131.743 5.66856 129.802 11.3034 128.663 15.0317C127.903 17.5737 125.878 23.5475 128.958 25.4964C129.718 25.9624 132.249 26.5979 132.46 25.454C134.233 16.3875 139.802 11.1339 139.887 9.18503Z" fill="#333333"/>
<path d="M128.199 27.7842C124.95 29.606 127.313 34.9019 130.688 33.1649C133.895 31.5126 131.659 26.3438 128.199 27.7842Z" fill="#333333"/>
</svg>
